<svg preserveAspectRatio="none" width="100%" height="100%" overflow="visible" style="display: block;" viewBox="0 0 16 16" fill="none" xmlns="http://www.w3.org/2000/svg">
<g id="LoginScreen" clip-path="url(#clip0_5_56)">
<path id="Vector" d="M15.0359 8.16442C15.0359 7.64456 14.9892 7.1447 14.9026 6.66483H7.9978V9.50405H11.9434C11.7701 10.4171 11.2502 11.1903 10.4705 11.7101V13.5563H12.8498C14.2361 12.2766 15.0359 10.3971 15.0359 8.16442Z" fill="var(--fill-0, #4285F4)"/>
<path id="Vector_2" d="M7.9978 15.3291C9.97726 15.3291 11.6368 14.676 12.8498 13.5563L10.4705 11.7101C9.8173 12.15 8.9842 12.4166 7.9978 12.4166C6.09166 12.4166 4.4721 11.1303 3.89226 9.39742H1.45293V11.2902C2.65927 13.6829 5.13192 15.3291 7.9978 15.3291Z" fill="var(--fill-0, #34A853)"/>
<path id="Vector_3" d="M3.89226 9.39075C3.74564 8.95087 3.65899 8.48433 3.65899 7.9978C3.65899 7.51127 3.74564 7.04473 3.89226 6.60485V4.71204H1.45293C0.953071 5.69843 0.666483 6.81146 0.666483 7.9978C0.666483 9.18414 0.953071 10.2972 1.45293 11.2836L3.35241 9.80397L3.89226 9.39075Z" fill="var(--fill-0, #FBBC05)"/>
<path id="Vector_4" d="M7.9978 3.58568C9.0775 3.58568 10.0372 3.95891 10.8037 4.67871L12.9031 2.57929C11.6301 1.39295 9.97726 0.666483 7.9978 0.666483C5.13192 0.666483 2.65927 2.3127 1.45293 4.71204L3.89226 6.60485C4.4721 4.87199 6.09166 3.58568 7.9978 3.58568Z" fill="var(--fill-0, #EA4335)"/>
</g>
<defs>
<clipPath id="clip0_5_56">
<rect width="15.9956" height="15.9956" fill="white"/>
</clipPath>
</defs>
</svg>
